<svg xmlns="http://www.w3.org/2000/svg" width="82.864" height="84.428" viewBox="0 0 82.864 84.428">
  <g id="Group_30" data-name="Group 30" transform="translate(-137.16 -71.388)">
    <path id="Path_95" data-name="Path 95" d="M158.953,76.564a1.364,1.364,0,0,1-1.366-1.364V72.752a1.365,1.365,0,0,1,2.729,0V75.2A1.364,1.364,0,0,1,158.953,76.564Z" transform="translate(19.652)" fill="#5a5a5a"/>
    <path id="Path_96" data-name="Path 96" d="M169.282,102.465H158.006a1.367,1.367,0,0,1-1.366-1.366V97.67a8.5,8.5,0,0,0-1.774-5.076,10.934,10.934,0,1,1,17.59-.049,8.7,8.7,0,0,0-1.809,5.129V101.1A1.367,1.367,0,0,1,169.282,102.465Zm-9.912-2.729h8.547V97.674a11.394,11.394,0,0,1,2.343-6.748,8.1,8.1,0,0,0,1.589-4.84,8.205,8.205,0,1,0-14.792,4.878,11.217,11.217,0,0,1,2.313,6.706Z" transform="translate(14.96 3.624)" fill="#5a5a5a"/>
    <path id="Path_97" data-name="Path 97" d="M163.817,78.188a1.365,1.365,0,0,1-.965-2.329l1.733-1.731a1.364,1.364,0,0,1,1.929,1.929l-1.731,1.731A1.361,1.361,0,0,1,163.817,78.188Z" transform="translate(24.334 2.251)" fill="#5a5a5a"/>
    <path id="Path_98" data-name="Path 98" d="M154.923,78.188a1.361,1.361,0,0,1-.965-.4l-1.731-1.731a1.364,1.364,0,0,1,1.929-1.929l1.731,1.731a1.365,1.365,0,0,1-.963,2.329Z" transform="translate(14.111 2.251)" fill="#5a5a5a"/>
    <path id="Path_99" data-name="Path 99" d="M162.188,111.936a7.978,7.978,0,1,1,7.98-7.978A7.987,7.987,0,0,1,162.188,111.936Zm0-13.226a5.249,5.249,0,1,0,5.25,5.249A5.254,5.254,0,0,0,162.188,98.709Z" transform="translate(16.403 23.659)" fill="#5a5a5a"/>
    <path id="Path_100" data-name="Path 100" d="M180.041,123.971H151.731a1.363,1.363,0,0,1-1.364-1.364v-9.595a8.534,8.534,0,0,1,8.525-8.525h.441a3.3,3.3,0,0,1,2.551,1.128,5.227,5.227,0,0,0,8,0,3.308,3.308,0,0,1,2.551-1.128h.441a8.535,8.535,0,0,1,8.525,8.525v9.595A1.363,1.363,0,0,1,180.041,123.971ZM153.1,121.242h25.58v-8.229a5.8,5.8,0,0,0-5.8-5.8h-.441a.637.637,0,0,0-.467.163,7.956,7.956,0,0,1-12.173,0,.64.64,0,0,0-.465-.161h-.441a5.8,5.8,0,0,0-5.8,5.8Z" transform="translate(12.706 31.845)" fill="#5a5a5a"/>
    <path id="Path_101" data-name="Path 101" d="M175.4,111.922a7.979,7.979,0,1,1,7.98-7.98A7.989,7.989,0,0,1,175.4,111.922Zm0-13.228a5.25,5.25,0,1,0,5.25,5.249A5.254,5.254,0,0,0,175.4,98.693Z" transform="translate(29.109 23.644)" fill="#5a5a5a"/>
    <path id="Path_102" data-name="Path 102" d="M171.29,107.845a1.368,1.368,0,0,1-1.044-.483.632.632,0,0,0-.465-.163h-.441a5.858,5.858,0,0,0-1.242.133,1.364,1.364,0,1,1-.581-2.666,8.6,8.6,0,0,1,1.823-.194h.441a3.314,3.314,0,0,1,2.551,1.128,1.367,1.367,0,0,1-.163,1.923A1.353,1.353,0,0,1,171.29,107.845Z" transform="translate(28.171 31.829)" fill="#5a5a5a"/>
    <path id="Path_103" data-name="Path 103" d="M192.074,123.955H166.161a1.365,1.365,0,1,1,0-2.729h24.548V113a5.8,5.8,0,0,0-5.8-5.8h-.441a.635.635,0,0,0-.465.163,7.958,7.958,0,0,1-12.173,0,1.364,1.364,0,1,1,2.084-1.762,5.23,5.23,0,0,0,8.005,0,3.307,3.307,0,0,1,2.549-1.128h.441A8.535,8.535,0,0,1,193.437,113v9.595A1.363,1.363,0,0,1,192.074,123.955Z" transform="translate(26.587 31.829)" fill="#5a5a5a"/>
    <path id="Path_104" data-name="Path 104" d="M148.983,111.9a7.979,7.979,0,1,1,7.98-7.978A7.99,7.99,0,0,1,148.983,111.9Zm0-13.228a5.25,5.25,0,1,0,5.251,5.251A5.257,5.257,0,0,0,148.983,98.669Z" transform="translate(3.697 23.621)" fill="#5a5a5a"/>
    <path id="Path_105" data-name="Path 105" d="M148.311,107.823a1.366,1.366,0,0,1-1.044-2.247,3.32,3.32,0,0,1,2.551-1.128h.441a8.461,8.461,0,0,1,1.823.2,1.364,1.364,0,1,1-.581,2.666,5.844,5.844,0,0,0-1.242-.133h-.441a.635.635,0,0,0-.465.161A1.362,1.362,0,0,1,148.311,107.823Z" transform="translate(9.414 31.806)" fill="#5a5a5a"/>
    <path id="Path_106" data-name="Path 106" d="M164.437,123.931H138.524a1.363,1.363,0,0,1-1.364-1.364v-9.595a8.536,8.536,0,0,1,8.527-8.525h.44a3.308,3.308,0,0,1,2.551,1.128,5.227,5.227,0,0,0,8,0,1.365,1.365,0,0,1,2.086,1.762,7.958,7.958,0,0,1-12.173,0,.64.64,0,0,0-.467-.161h-.44a5.8,5.8,0,0,0-5.8,5.8V121.2h24.548a1.365,1.365,0,1,1,0,2.729Z" transform="translate(0 31.806)" fill="#5a5a5a"/>
    <path id="Path_107" data-name="Path 107" d="M197.564,100.792a1.365,1.365,0,0,1-1.364-1.366V90.412H147.1v9.014a1.365,1.365,0,1,1-2.729,0V89.047a1.364,1.364,0,0,1,1.366-1.364h51.824a1.365,1.365,0,0,1,1.366,1.364V99.426A1.367,1.367,0,0,1,197.564,100.792Z" transform="translate(6.94 15.677)" fill="#5a5a5a"/>
    <path id="Path_108" data-name="Path 108" d="M158.945,101.245a1.363,1.363,0,0,1-1.364-1.364V89.047a1.365,1.365,0,0,1,2.729,0V99.881A1.364,1.364,0,0,1,158.945,101.245Z" transform="translate(19.647 15.677)" fill="#5a5a5a"/>
  </g>
</svg>
