<svg xmlns="http://www.w3.org/2000/svg" width="83" height="100.587" viewBox="0 0 83 100.587">
  <g id="Layer_1" data-name="Layer 1" transform="translate(-308.566 -2251.485)">
    <g id="Group_16" data-name="Group 16" transform="translate(308.566 2251.485)">
      <g id="Group_12" data-name="Group 12" transform="translate(9.685 23.208)">
        <g id="Group_11" data-name="Group 11">
          <path id="Path_46" data-name="Path 46" d="M437.062,2387.957a16.192,16.192,0,0,1-.111-32.384h.114a16.192,16.192,0,0,1,.111,32.384Zm0-29.04h-.091a12.848,12.848,0,0,0,.088,25.7h.091a12.848,12.848,0,0,0-.088-25.7Z" transform="translate(-405.515 -2355.572)" fill="#f96a70"/>
          <path id="Path_47" data-name="Path 47" d="M403.721,2641.09c-.041,0-.081,0-.123,0a1.673,1.673,0,0,1-1.547-1.789l1.036-14.31a1.672,1.672,0,1,1,3.336.241l-1.036,14.31A1.672,1.672,0,0,1,403.721,2641.09Zm39.5-.445a1.672,1.672,0,0,1-1.665-1.543l-1.068-13.754a1.672,1.672,0,1,1,3.334-.259l1.068,13.754a1.672,1.672,0,0,1-1.538,1.8C443.3,2640.644,443.26,2640.646,443.217,2640.646Z" transform="translate(-390.888 -2563.711)" fill="#f96a70"/>
          <path id="Path_48" data-name="Path 48" d="M362.313,2500.728a10.3,10.3,0,0,1-9.578-14.118c.189-.521,3.189-8.806,4.662-13.329a18.635,18.635,0,0,1,13.258-12.261l1.06-.312a1.672,1.672,0,1,1,.943,3.209l-1.079.317-.04.011a15.328,15.328,0,0,0-10.962,10.071c-1.53,4.7-4.675,13.372-4.707,13.459-.006.018-.013.035-.02.053a6.96,6.96,0,0,0,7.662,9.45l28.556-9.887a1.711,1.711,0,0,1,.231-.062,4.4,4.4,0,0,0-1.546-8.672l-26.189,9.428a1.672,1.672,0,0,1-1.133-3.147l26.321-9.476a1.748,1.748,0,0,1,.25-.069,7.75,7.75,0,0,1,3.053,15.2l-28.569,9.892a1.65,1.65,0,0,1-.231.062A10.3,10.3,0,0,1,362.313,2500.728Z" transform="translate(-352.001 -2437.213)" fill="#f96a70"/>
          <path id="Path_49" data-name="Path 49" d="M524.058,2499.361a10.281,10.281,0,0,1-1.8-.159,1.659,1.659,0,0,1-.312-.087l-18.8-7.29a1.672,1.672,0,0,1,1.21-3.118l18.636,7.228a6.96,6.96,0,0,0,7.49-9.562l-.02-.048c-.033-.087-3.323-8.716-4.92-13.4a15.325,15.325,0,0,0-11.071-9.91l-1.989-.424a1.672,1.672,0,0,1,.7-3.271l2.02.431.06.014a18.639,18.639,0,0,1,13.448,12.081c1.536,4.505,4.68,12.761,4.87,13.261a10.3,10.3,0,0,1-9.521,14.253Z" transform="translate(-468.617 -2436.161)" fill="#f96a70"/>
          <path id="Path_50" data-name="Path 50" d="M443.336,2536.308a1.674,1.674,0,0,1-1.616-2.106,8.512,8.512,0,0,1,4.618-5.9c2.667-1.192,6.017-.842,9.688,1.013a1.672,1.672,0,1,1-1.508,2.985c-2.7-1.366-5.123-1.7-6.815-.944a5.238,5.238,0,0,0-2.752,3.712A1.673,1.673,0,0,1,443.336,2536.308Z" transform="translate(-421.671 -2489.251)" fill="#f96a70"/>
          <path id="Path_51" data-name="Path 51" d="M558.983,2559.949a1.673,1.673,0,0,1-.523-.084l-5.737-1.889a1.672,1.672,0,0,1,1.046-3.177l5.737,1.889a1.673,1.673,0,0,1-.523,3.261Z" transform="translate(-507.075 -2510.312)" fill="#f96a70"/>
        </g>
      </g>
      <g id="Group_13" data-name="Group 13" transform="translate(51.107 0.375)">
        <path id="Path_52" data-name="Path 52" d="M573.754,2278.95a8.171,8.171,0,0,1-5.58-2.192,1.672,1.672,0,1,1,2.276-2.45,4.854,4.854,0,1,0,5.694-7.78,1.672,1.672,0,0,1-.549-2.406,4.854,4.854,0,1,0-8.237-5.115,1.672,1.672,0,0,1-2.516.483,4.8,4.8,0,0,0-3.06-1.087,4.854,4.854,0,0,0-3.244,8.465,1.672,1.672,0,0,1-2.236,2.487,8.2,8.2,0,0,1,9.16-13.423,12.25,12.25,0,1,1,8.292,23.017Z" transform="translate(-550.06 -2253.166)" fill="#f96a70"/>
        <path id="Path_53" data-name="Path 53" d="M637.959,2301a1.681,1.681,0,0,1-.472-.068,6.446,6.446,0,0,0-4.056-.059l.023-.01-1.384-3.045a9.51,9.51,0,0,1,6.358-.1,1.672,1.672,0,0,1-.47,3.277Z" transform="translate(-611.047 -2287.417)" fill="#f96a70"/>
        <path id="Path_54" data-name="Path 54" d="M539.449,2318.12a1.672,1.672,0,0,1-1.182-2.855l8.073-8.073a1.672,1.672,0,0,1,2.365,2.365l-8.073,8.073A1.667,1.667,0,0,1,539.449,2318.12Z" transform="translate(-537.777 -2294.766)" fill="#f96a70"/>
        <path id="Path_55" data-name="Path 55" d="M577.62,2353.185a1.672,1.672,0,0,1-1.183-2.855l8.679-8.679a1.672,1.672,0,0,1,2.365,2.365L578.8,2352.7A1.668,1.668,0,0,1,577.62,2353.185Z" transform="translate(-567.437 -2321.541)" fill="#f96a70"/>
        <path id="Path_56" data-name="Path 56" d="M583.425,2323.245a1.672,1.672,0,0,1-1.182-2.854l4.211-4.211a1.672,1.672,0,0,1,2.365,2.365l-4.211,4.211A1.667,1.667,0,0,1,583.425,2323.245Z" transform="translate(-571.948 -2301.749)" fill="#f96a70"/>
      </g>
      <g id="Group_15" data-name="Group 15" transform="translate(0 0)">
        <g id="Group_14" data-name="Group 14">
          <path id="Path_57" data-name="Path 57" d="M316.756,2277.346a12.976,12.976,0,1,1,7.724-23.325,8.2,8.2,0,0,1,9.67,13.061,11.713,11.713,0,0,1-3.6,2.279,1.672,1.672,0,0,1-1.2-3.122,8.539,8.539,0,0,0,2.474-1.557,4.854,4.854,0,0,0-3.567-8.334,4.8,4.8,0,0,0-3.016,1.2,1.673,1.673,0,0,1-2.533-.386,4.873,4.873,0,0,0-4.337-2.333,4.853,4.853,0,0,0-3.7,7.76,1.673,1.673,0,0,1-.456,2.426,4.854,4.854,0,1,0,5.989,7.555,1.672,1.672,0,0,1,2.369,2.361,8.169,8.169,0,0,1-5.491,2.4C316.972,2277.343,316.864,2277.346,316.756,2277.346Z" transform="translate(-308.566 -2251.485)" fill="#f96a70"/>
          <path id="Path_58" data-name="Path 58" d="M324.11,2299.844a1.673,1.673,0,0,1-.532-3.258,9.512,9.512,0,0,1,6.357-.149l-1.266,3.1.023.009a6.449,6.449,0,0,0-4.05.215A1.662,1.662,0,0,1,324.11,2299.844Z" transform="translate(-319.345 -2286.059)" fill="#f96a70"/>
        </g>
        <path id="Path_59" data-name="Path 59" d="M366.156,2271.6a1.673,1.673,0,0,1-1.6-2.142,10.1,10.1,0,0,1,1.749-3.3,1.672,1.672,0,1,1,2.562,2.15,6.868,6.868,0,0,0-1.1,2.1A1.677,1.677,0,0,1,366.156,2271.6Z" transform="translate(-352.015 -2262.426)" fill="#f96a70"/>
        <path id="Path_60" data-name="Path 60" d="M395,2318.462a1.667,1.667,0,0,1-1.191-.5l-8.751-8.881a1.672,1.672,0,0,1,2.382-2.347l8.751,8.881a1.672,1.672,0,0,1-1.191,2.846Z" transform="translate(-367.625 -2294.029)" fill="#f96a70"/>
        <path id="Path_61" data-name="Path 61" d="M369.11,2345.44a1.666,1.666,0,0,1-1.191-.5l-10.142-10.292a1.672,1.672,0,0,1,2.382-2.347l10.142,10.293a1.672,1.672,0,0,1-1.191,2.846Z" transform="translate(-346.431 -2313.895)" fill="#f96a70"/>
      </g>
      <path id="Path_62" data-name="Path 62" d="M440.4,2402.554a1.673,1.673,0,0,1-.721-.164l-10.408-4.98a1.672,1.672,0,1,1,1.444-3.017l8.014,3.834v-.928a1.672,1.672,0,1,1,3.345,0v3.582a1.672,1.672,0,0,1-1.673,1.672Z" transform="translate(-401.618 -2362.402)" fill="#f96a70"/>
      <path id="Path_63" data-name="Path 63" d="M497.672,2402.555a1.672,1.672,0,0,1-1.672-1.672V2397.3a1.672,1.672,0,0,1,3.345,0v.928l8.014-3.834a1.672,1.672,0,1,1,1.444,3.017l-10.408,4.98A1.671,1.671,0,0,1,497.672,2402.555Z" transform="translate(-454.208 -2362.403)" fill="#f96a70"/>
      <path id="Path_64" data-name="Path 64" d="M480.362,2448.832a1.672,1.672,0,0,1-1.672-1.672,1.452,1.452,0,1,0-2.9,0,1.672,1.672,0,1,1-3.345,0,4.8,4.8,0,1,1,9.593,0A1.672,1.672,0,0,1,480.362,2448.832Z" transform="translate(-435.903 -2399.804)" fill="#f96a70"/>
    </g>
  </g>
</svg>
