<svg xmlns="http://www.w3.org/2000/svg" width="82" height="81.136" viewBox="0 0 82 81.136">
  <g id="Group_35" data-name="Group 35" transform="translate(-318.46 -77.297)">
    <path id="Path_124" data-name="Path 124" d="M393.587,137.355H325.331a6.879,6.879,0,0,1-6.871-6.873v-41.2a6.879,6.879,0,0,1,6.871-6.873h16.741a1.386,1.386,0,0,1,0,2.773H325.331a4.1,4.1,0,0,0-4.1,4.1v41.2a4.1,4.1,0,0,0,4.1,4.1h68.257a4.1,4.1,0,0,0,4.1-4.1v-41.2a4.1,4.1,0,0,0-4.1-4.1H376.85a1.386,1.386,0,1,1,0-2.773h16.737a6.88,6.88,0,0,1,6.873,6.873v41.2A6.88,6.88,0,0,1,393.587,137.355Z" transform="translate(0 4.638)" fill="#5a5a5a"/>
    <path id="Path_125" data-name="Path 125" d="M399.074,108.45H319.844a1.386,1.386,0,0,1,0-2.773h79.229a1.386,1.386,0,0,1,0,2.773Z" transform="translate(0 25.739)" fill="#5a5a5a"/>
    <path id="Path_126" data-name="Path 126" d="M347.518,120.426h-9.35a1.385,1.385,0,0,1-1.386-1.386v-7.883a1.386,1.386,0,0,1,1.386-1.386h9.35a1.388,1.388,0,0,1,1.386,1.386v7.883A1.386,1.386,0,0,1,347.518,120.426Zm-7.963-2.773h6.577v-5.111h-6.577Z" transform="translate(16.617 29.451)" fill="#5a5a5a"/>
    <path id="Path_127" data-name="Path 127" d="M353.6,125.233H336.008a1.385,1.385,0,0,1-1.386-1.386V115.29a1.386,1.386,0,0,1,1.386-1.386H353.6a1.388,1.388,0,0,1,1.388,1.386v8.556A1.387,1.387,0,0,1,353.6,125.233Zm-16.2-2.773h14.817v-5.784H337.395Z" transform="translate(14.658 33.2)" fill="#5a5a5a"/>
    <path id="Path_128" data-name="Path 128" d="M371.835,121.164H329.527a1.386,1.386,0,1,1,0-2.773h42.307a1.386,1.386,0,1,1,0,2.773Z" transform="translate(8.78 37.269)" fill="#5a5a5a"/>
    <path id="Path_129" data-name="Path 129" d="M344.58,120.682a1.417,1.417,0,0,1-.427-.067L336.071,118a1.386,1.386,0,0,1-.955-1.213c-1.92-24.712,7.927-38.39,8.349-38.959a1.436,1.436,0,0,1,2.231,0c.421.568,10.267,14.247,8.347,38.959a1.392,1.392,0,0,1-.955,1.213l-8.08,2.614A1.436,1.436,0,0,1,344.58,120.682Zm-6.766-5.032,6.766,2.189,6.764-2.189c1.2-18.141-4.319-30.061-6.764-34.376C342.134,85.588,336.619,97.509,337.814,115.649Z" transform="translate(14.881)" fill="#5a5a5a"/>
    <path id="Path_130" data-name="Path 130" d="M347.155,106.547H339.17a2.744,2.744,0,0,1-2.74-2.744V99.074a1.384,1.384,0,0,1,1.812-1.32l4.922,1.592,4.92-1.592a1.388,1.388,0,0,1,1.814,1.32V103.8A2.745,2.745,0,0,1,347.155,106.547Zm-7.952-5.568V103.8l7.952-.031-.019-2.8-3.545,1.148a1.391,1.391,0,0,1-.854,0Z" transform="translate(16.298 18.492)" fill="#5a5a5a"/>
    <path id="Path_131" data-name="Path 131" d="M354.3,112.049a1.389,1.389,0,0,1-1.207-.7,15.621,15.621,0,0,0-8.2-7.038,1.386,1.386,0,0,1,.788-2.658,17.7,17.7,0,0,1,7.128,4.676,20.207,20.207,0,0,0-8.924-14.865,1.387,1.387,0,0,1,1.518-2.321c11.64,7.626,10.334,21.1,10.273,21.672a1.387,1.387,0,0,1-1.379,1.238Z" transform="translate(22.491 10.534)" fill="#5a5a5a"/>
    <path id="Path_132" data-name="Path 132" d="M331.562,112.049a1.387,1.387,0,0,1-1.379-1.238c-.061-.57-1.369-14.046,10.273-21.672a1.387,1.387,0,0,1,1.52,2.321,20.332,20.332,0,0,0-8.894,14.83,17.686,17.686,0,0,1,7.1-4.641,1.386,1.386,0,0,1,.793,2.656,15.8,15.8,0,0,0-8.2,7.04A1.387,1.387,0,0,1,331.562,112.049Z" transform="translate(10.567 10.534)" fill="#5a5a5a"/>
    <path id="Path_133" data-name="Path 133" d="M340.621,110.879a1.387,1.387,0,0,1-1.388-1.386v-5.109a1.386,1.386,0,0,1,2.773,0v5.109A1.385,1.385,0,0,1,340.621,110.879Z" transform="translate(18.84 23.309)" fill="#5a5a5a"/>
    <path id="Path_134" data-name="Path 134" d="M340.621,102.358a1.388,1.388,0,0,1-1.388-1.386V88.492a1.386,1.386,0,0,1,2.773,0v12.479A1.386,1.386,0,0,1,340.621,102.358Z" transform="translate(18.84 8.896)" fill="#5a5a5a"/>
    <path id="Path_135" data-name="Path 135" d="M345.291,111.238a1.386,1.386,0,0,1-1.388-1.386v-5.862a1.386,1.386,0,1,1,2.773,0v5.862A1.385,1.385,0,0,1,345.291,111.238Z" transform="translate(23.075 22.951)" fill="#5a5a5a"/>
    <path id="Path_136" data-name="Path 136" d="M335.949,111.238a1.386,1.386,0,0,1-1.386-1.386v-5.862a1.387,1.387,0,0,1,2.775,0v5.862A1.387,1.387,0,0,1,335.949,111.238Z" transform="translate(14.604 22.951)" fill="#5a5a5a"/>
    <path id="Path_137" data-name="Path 137" d="M353.287,100.086a1.387,1.387,0,0,1-.98-2.368l6.436-6.436a1.387,1.387,0,0,1,1.962,1.96l-6.436,6.438A1.389,1.389,0,0,1,353.287,100.086Z" transform="translate(30.329 12.315)" fill="#5a5a5a"/>
    <path id="Path_138" data-name="Path 138" d="M353.287,108.977a1.386,1.386,0,0,1-.98-2.367l8.141-8.141a1.386,1.386,0,0,1,1.96,1.96l-8.139,8.141A1.389,1.389,0,0,1,353.287,108.977Z" transform="translate(30.329 18.834)" fill="#5a5a5a"/>
    <path id="Path_139" data-name="Path 139" d="M350.233,92.7a1.386,1.386,0,0,1-.98-2.367l3.268-3.268a1.387,1.387,0,0,1,1.962,1.96l-3.268,3.268A1.386,1.386,0,0,1,350.233,92.7Z" transform="translate(27.559 8.491)" fill="#5a5a5a"/>
    <path id="Path_140" data-name="Path 140" d="M331.014,100.086a1.386,1.386,0,0,1-.982-.406L323.6,93.243a1.387,1.387,0,1,1,1.962-1.96l6.436,6.436a1.387,1.387,0,0,1-.98,2.368Z" transform="translate(4.29 12.315)" fill="#5a5a5a"/>
    <path id="Path_141" data-name="Path 141" d="M331.824,108.977a1.386,1.386,0,0,1-.982-.406l-8.139-8.141a1.386,1.386,0,0,1,1.96-1.96l8.141,8.141a1.386,1.386,0,0,1-.98,2.367Z" transform="translate(3.48 18.834)" fill="#5a5a5a"/>
    <path id="Path_142" data-name="Path 142" d="M332.56,92.7a1.385,1.385,0,0,1-.98-.406l-3.268-3.268a1.386,1.386,0,0,1,1.96-1.96l3.268,3.268a1.386,1.386,0,0,1-.98,2.367Z" transform="translate(8.566 8.491)" fill="#5a5a5a"/>
  </g>
</svg>
