<svg xmlns="http://www.w3.org/2000/svg" width="110" height="109.045" viewBox="0 0 110 109.045">
  <g id="Group_1" data-name="Group 1" transform="translate(-318.839 -14.781)">
    <path id="Path_1" data-name="Path 1" d="M333.8,44.441a1.9,1.9,0,0,1-1.76-2.6l1.12-2.81a1.894,1.894,0,0,1,3.518,1.4l-1.122,2.807A1.891,1.891,0,0,1,333.8,44.441Z" transform="translate(20.962 36.992)" fill="#ec1c24"/>
    <path id="Path_2" data-name="Path 2" d="M349.228,94.1a30.452,30.452,0,1,1,11.991-2.487A30.394,30.394,0,0,1,349.228,94.1Zm-.01-57a26.649,26.649,0,1,0,9.853,1.9A26.488,26.488,0,0,0,349.218,37.092Z" transform="translate(0.005 29.73)" fill="#ec1c24"/>
    <path id="Path_3" data-name="Path 3" d="M335.867,71.47a10.376,10.376,0,0,1-3.836-.74A9.667,9.667,0,0,1,326.3,58.357a1.893,1.893,0,1,1,3.518,1.4,6.147,6.147,0,0,0,11.372,4.534,5.88,5.88,0,0,0-3.62-7.453,9.66,9.66,0,0,1-5.731-12.374,9.923,9.923,0,0,1,18.4,7.341,1.892,1.892,0,1,1-3.515-1.4,6.147,6.147,0,0,0-11.372-4.536,5.872,5.872,0,0,0,3.617,7.453,9.662,9.662,0,0,1,5.734,12.374A9.4,9.4,0,0,1,335.867,71.47Z" transform="translate(10.954 38.349)" fill="#ec1c24"/>
    <path id="Path_4" data-name="Path 4" d="M329.06,56.564A1.894,1.894,0,0,1,327.3,53.97l1.271-3.187a1.893,1.893,0,0,1,3.518,1.4l-1.271,3.185A1.891,1.891,0,0,1,329.06,56.564Z" transform="translate(13.358 55.836)" fill="#ec1c24"/>
    <path id="Path_5" data-name="Path 5" d="M368.187,65.015H346.314c-1.531,0-2.646-1.476-2.646-3.513V54.95c0-2.034,1.115-3.51,2.646-3.51h21.873c1.534,0,2.646,1.476,2.646,3.51V61.5C370.833,63.538,369.721,65.015,368.187,65.015Zm-20.733-3.786h19.592v-6H347.454Z" transform="translate(39.825 58.801)" fill="#ec1c24"/>
    <path id="Path_6" data-name="Path 6" d="M426.943,58.985H320.732a1.893,1.893,0,1,1,0-3.786H426.943a1.893,1.893,0,1,1,0,3.786Z" transform="translate(0 64.83)" fill="#ec1c24"/>
    <path id="Path_7" data-name="Path 7" d="M364.378,50.1H347.692a1.893,1.893,0,0,1,0-3.786H363.24v-6H343.052a1.893,1.893,0,1,1,0-3.786h21.327c1.534,0,2.648,1.479,2.648,3.513V46.59C367.027,48.627,365.912,50.1,364.378,50.1Z" transform="translate(35.796 34.879)" fill="#ec1c24"/>
    <path id="Path_8" data-name="Path 8" d="M376.984,50.1H347.692a1.893,1.893,0,0,1,0-3.786h29.016v-6H343.052a1.893,1.893,0,1,1,0-3.786h33.932a3.518,3.518,0,0,1,3.513,3.513V46.59A3.518,3.518,0,0,1,376.984,50.1Z" transform="translate(35.796 34.879)" fill="#ec1c24"/>
    <path id="Path_9" data-name="Path 9" d="M367.3,57.56H345.43a1.893,1.893,0,1,1,0-3.786h20.73v-6H345.43a1.893,1.893,0,0,1,0-3.786H367.3c1.534,0,2.646,1.476,2.646,3.513v6.552C369.946,56.081,368.834,57.56,367.3,57.56Z" transform="translate(39.61 46.84)" fill="#ec1c24"/>
    <path id="Path_10" data-name="Path 10" d="M364.9,53.83H346.394a1.893,1.893,0,1,1,0-3.786H363.76v-6H344.824a1.893,1.893,0,0,1,0-3.786H364.9c1.534,0,2.646,1.476,2.646,3.513v6.552C367.546,52.353,366.435,53.83,364.9,53.83Z" transform="translate(38.643 40.86)" fill="#ec1c24"/>
    <path id="Path_11" data-name="Path 11" d="M377.5,53.83h-31.11a1.893,1.893,0,1,1,0-3.786h30.834v-6h-32.4a1.893,1.893,0,0,1,0-3.786H377.5a3.516,3.516,0,0,1,3.513,3.513v6.552A3.517,3.517,0,0,1,377.5,53.83Z" transform="translate(38.643 40.86)" fill="#ec1c24"/>
    <path id="Path_12" data-name="Path 12" d="M380.642,57.56H344.97a1.893,1.893,0,1,1,0-3.786h35.4v-6h-34.2a1.893,1.893,0,0,1,0-3.786h34.474a3.516,3.516,0,0,1,3.513,3.513v6.552A3.516,3.516,0,0,1,380.642,57.56Z" transform="translate(38.872 46.84)" fill="#ec1c24"/>
    <path id="Path_13" data-name="Path 13" d="M381.132,61.288H343.369a1.893,1.893,0,0,1,0-3.786h37.49v-6H347.551a1.894,1.894,0,0,1,0-3.789h33.581a3.518,3.518,0,0,1,3.515,3.513v6.552A3.518,3.518,0,0,1,381.132,61.288Z" transform="translate(36.309 52.819)" fill="#ec1c24"/>
    <path id="Path_14" data-name="Path 14" d="M388.09,65.015H341.013a1.893,1.893,0,1,1,0-3.786h46.8v-6H347.2a1.893,1.893,0,1,1,0-3.786h40.89a3.512,3.512,0,0,1,3.51,3.51V61.5A3.514,3.514,0,0,1,388.09,65.015Z" transform="translate(32.526 58.801)" fill="#ec1c24"/>
    <path id="Path_15" data-name="Path 15" d="M366.5,61.288H344.634a1.893,1.893,0,1,1,0-3.786h20.73v-6H345.527a1.894,1.894,0,0,1,0-3.789H366.5c1.534,0,2.646,1.476,2.646,3.513v6.552C369.15,59.812,368.038,61.288,366.5,61.288Z" transform="translate(38.334 52.819)" fill="#ec1c24"/>
    <path id="Path_16" data-name="Path 16" d="M377.642,75.191a1.893,1.893,0,0,1-1.893-1.893V54.081a1.9,1.9,0,0,1,1.893-1.9h11.523L361.289,19.557,333.413,52.185h11.523a1.9,1.9,0,0,1,1.893,1.9V66.562a1.893,1.893,0,1,1-3.786,0V55.974H329.307a1.894,1.894,0,0,1-1.44-3.125l31.982-37.437a1.959,1.959,0,0,1,2.88,0l31.982,37.437a1.9,1.9,0,0,1-1.44,3.125H379.535V73.3A1.893,1.893,0,0,1,377.642,75.191Z" transform="translate(13.75 0)" fill="#ec1c24"/>
    <path id="Path_17" data-name="Path 17" d="M335.307,35.131a1.893,1.893,0,0,1-1.893-1.893v-3.57a1.893,1.893,0,1,1,3.786,0v3.57A1.9,1.9,0,0,1,335.307,35.131Z" transform="translate(23.378 20.843)" fill="#ec1c24"/>
    <path id="Path_18" data-name="Path 18" d="M347.867,35.131a1.9,1.9,0,0,1-1.893-1.893v-3.57a1.893,1.893,0,1,1,3.786,0v3.57A1.9,1.9,0,0,1,347.867,35.131Z" transform="translate(43.524 20.843)" fill="#ec1c24"/>
    <path id="Path_19" data-name="Path 19" d="M341.589,45.166a1.9,1.9,0,0,1-1.9-1.893V25.813a1.893,1.893,0,0,1,3.786,0v17.46A1.893,1.893,0,0,1,341.589,45.166Z" transform="translate(33.449 14.659)" fill="#ec1c24"/>
  </g>
</svg>
