<svg xmlns="http://www.w3.org/2000/svg" width="17.013" height="17.013" viewBox="0 0 17.013 17.013">
  <path id="Path_145" data-name="Path 145" d="M190.434,76.094a4.345,4.345,0,1,1,4.34,4.35,4.35,4.35,0,0,1-4.34-4.35Zm8.831-8.5h-8.971a4.031,4.031,0,0,0-4.021,4.021v8.971a4.037,4.037,0,0,0,4.021,4.021h8.971a4.031,4.031,0,0,0,4.021-4.021V71.613a4.025,4.025,0,0,0-4.021-4.021ZM190.294,68.6h8.971a3.019,3.019,0,0,1,3.015,3.016v8.971a3.019,3.019,0,0,1-3.015,3.015h-8.971a3.019,3.019,0,0,1-3.016-3.015V71.613a3.019,3.019,0,0,1,3.016-3.016Zm9.864,1.268a.883.883,0,1,0,.883.883.882.882,0,0,0-.883-.883Zm.1,6.228a5.486,5.486,0,1,0-5.486,5.486,5.486,5.486,0,0,0,5.486-5.486Z" transform="translate(-186.273 -67.592)" fill="#131313" fill-rule="evenodd"/>
</svg>
