<svg xmlns="http://www.w3.org/2000/svg" width="119" height="96.82" viewBox="0 0 119 96.82">
  <g id="Group_4" data-name="Group 4" transform="translate(-257.704 -333.219)">
    <path id="Path_20" data-name="Path 20" d="M371.551,424.945h-110a1.952,1.952,0,0,1-1.953-1.95V335.17a1.953,1.953,0,0,1,3.906,0v85.869H371.551a1.953,1.953,0,1,1,0,3.906Z" transform="translate(3.197 0.002)" fill="#ec1c24"/>
    <path id="Path_21" data-name="Path 21" d="M266.649,345.965a1.953,1.953,0,0,1-1.7-.978l-5.093-8.838a1.953,1.953,0,1,1,3.385-1.95l5.093,8.835a1.949,1.949,0,0,1-.717,2.667A1.912,1.912,0,0,1,266.649,345.965Z" transform="translate(3.196 0)" fill="#ec1c24"/>
    <path id="Path_22" data-name="Path 22" d="M259.657,345.965a1.921,1.921,0,0,1-.975-.263,1.954,1.954,0,0,1-.717-2.667l5.093-8.835a1.953,1.953,0,1,1,3.385,1.95l-5.1,8.838A1.944,1.944,0,0,1,259.657,345.965Z" transform="translate(0 0)" fill="#ec1c24"/>
    <path id="Path_23" data-name="Path 23" d="M299.215,374.911a1.953,1.953,0,0,1-.975-3.645l8.835-5.09a1.954,1.954,0,0,1,1.953,3.385l-8.837,5.09A1.982,1.982,0,0,1,299.215,374.911Z" transform="translate(66.699 55.128)" fill="#ec1c24"/>
    <path id="Path_24" data-name="Path 24" d="M308.05,373.016a1.963,1.963,0,0,1-.975-.258l-8.835-5.1a1.953,1.953,0,0,1,1.95-3.385l8.837,5.1a1.952,1.952,0,0,1-.978,3.642Z" transform="translate(66.699 51.931)" fill="#ec1c24"/>
    <path id="Path_25" data-name="Path 25" d="M272.8,372.727a8.423,8.423,0,1,1,8.418-8.418A8.432,8.432,0,0,1,272.8,372.727Zm0-12.939a4.517,4.517,0,1,0,4.513,4.521A4.526,4.526,0,0,0,272.8,359.788Z" transform="translate(11.247 38.214)" fill="#ec1c24"/>
    <path id="Path_26" data-name="Path 26" d="M280.08,363.514a8.424,8.424,0,1,1,8.424-8.424A8.435,8.435,0,0,1,280.08,363.514Zm0-12.942a4.517,4.517,0,1,0,4.518,4.518A4.521,4.521,0,0,0,280.08,350.572Z" transform="translate(23.522 22.674)" fill="#ec1c24"/>
    <path id="Path_27" data-name="Path 27" d="M292.123,359.679a8.424,8.424,0,1,1,8.424-8.424A8.434,8.434,0,0,1,292.123,359.679Zm0-12.942a4.517,4.517,0,1,0,4.518,4.518A4.521,4.521,0,0,0,292.123,346.737Z" transform="translate(43.832 16.207)" fill="#ec1c24"/>
    <path id="Path_28" data-name="Path 28" d="M300.243,350.624a8.424,8.424,0,1,1,8.424-8.421A8.432,8.432,0,0,1,300.243,350.624Zm0-12.942a4.518,4.518,0,1,0,4.518,4.521A4.524,4.524,0,0,0,300.243,337.682Z" transform="translate(57.524 0.939)" fill="#ec1c24"/>
    <path id="Path_29" data-name="Path 29" d="M354.57,416.93H261.553a1.95,1.95,0,0,1-1.421-3.291L275,397.861a1.955,1.955,0,0,1,2.761-.083,4.5,4.5,0,1,0,5.872-6.8,1.952,1.952,0,0,1-.32-2.743l11.569-14.648a1.958,1.958,0,0,1,2.745-.317,4.47,4.47,0,0,0,2.78.991,4.523,4.523,0,0,0,4.518-4.515,4.449,4.449,0,0,0-.242-1.362,1.958,1.958,0,0,1,1.268-2.455l20.079-6.393a1.948,1.948,0,0,1,2.45,1.271,4.5,4.5,0,0,0,8.8-1.362,4.441,4.441,0,0,0-1.52-3.344,1.96,1.96,0,0,1-.15-2.761l13.205-14.72a1.925,1.925,0,0,1,1.348-.645,1.977,1.977,0,0,1,1.413.494,4.474,4.474,0,0,0,3,1.171,1.955,1.955,0,0,1,1.953,1.953V414.98A1.952,1.952,0,0,1,354.57,416.93Zm-88.49-3.906h86.535V343.313a8.3,8.3,0,0,1-2.05-.8l-10.9,12.147a8.4,8.4,0,1,1-14.1,9.122L308.8,369.121c.019.21.027.419.027.626a8.436,8.436,0,0,1-8.424,8.424,8.266,8.266,0,0,1-3.538-.8l-9.42,11.924a8.324,8.324,0,0,1,1.821,5.206,8.428,8.428,0,0,1-8.418,8.418,8.335,8.335,0,0,1-4.193-1.128Z" transform="translate(3.196 8.016)" fill="#ec1c24"/>
    <path id="Path_30" data-name="Path 30" d="M288.061,400.615a1.952,1.952,0,0,1-1.953-1.95V349.6a1.953,1.953,0,1,1,3.906,0v49.063A1.951,1.951,0,0,1,288.061,400.615Z" transform="translate(47.894 24.331)" fill="#ec1c24"/>
    <path id="Path_31" data-name="Path 31" d="M276.018,394.15a1.955,1.955,0,0,1-1.955-1.95V353.436a1.954,1.954,0,0,1,3.908,0V392.2A1.952,1.952,0,0,1,276.018,394.15Z" transform="translate(27.584 30.796)" fill="#ec1c24"/>
    <path id="Path_32" data-name="Path 32" d="M268.738,378.61a1.951,1.951,0,0,1-1.956-1.95V362.654a1.953,1.953,0,1,1,3.906,0V376.66A1.95,1.95,0,0,1,268.738,378.61Z" transform="translate(15.309 46.336)" fill="#ec1c24"/>
  </g>
</svg>
