<svg xmlns="http://www.w3.org/2000/svg" width="123" height="115.108" viewBox="0 0 123 115.108">
  <g id="Group_18" data-name="Group 18" transform="translate(-455.685 -160.368)">
    <path id="Path_82" data-name="Path 82" d="M462.689,214.984a2.088,2.088,0,0,1-2.089-2.089v-3.763a2.089,2.089,0,0,1,4.179,0v3.763A2.088,2.088,0,0,1,462.689,214.984Z" transform="translate(6.37 60.492)" fill="#f96a70"/>
    <path id="Path_83" data-name="Path 83" d="M470.155,214.984a2.09,2.09,0,0,1-2.092-2.089v-3.763a2.091,2.091,0,0,1,4.181,0v3.763A2.088,2.088,0,0,1,470.155,214.984Z" transform="translate(16.042 60.492)" fill="#f96a70"/>
    <path id="Path_84" data-name="Path 84" d="M470.865,212.782a10.425,10.425,0,1,1,9.963-10.415A10.209,10.209,0,0,1,470.865,212.782Zm0-16.649a6.253,6.253,0,1,0,5.784,6.234A6.027,6.027,0,0,0,470.865,196.133Z" transform="translate(6.761 40.935)" fill="#f96a70"/>
    <path id="Path_85" data-name="Path 85" d="M492.252,222.613H459.23a2.088,2.088,0,0,1-2.089-2.089v-9.788a9.588,9.588,0,0,1,9.577-9.579H484.76a9.59,9.59,0,0,1,9.581,9.579v9.788A2.09,2.09,0,0,1,492.252,222.613Zm-30.933-4.179h28.841v-7.7a5.4,5.4,0,0,0-5.4-5.4H466.718a5.4,5.4,0,0,0-5.4,5.4Z" transform="translate(1.887 52.864)" fill="#f96a70"/>
    <path id="Path_86" data-name="Path 86" d="M513.367,212.86H457.774a2.089,2.089,0,0,1,0-4.179h55.592a2.089,2.089,0,0,1,0,4.179Z" transform="translate(0 62.617)" fill="#f96a70"/>
    <path id="Path_87" data-name="Path 87" d="M561.946,207.042A46.389,46.389,0,0,1,548.42,239.9a2.09,2.09,0,0,1-2.969-2.944,42.5,42.5,0,1,0-64.753-5.226,2.089,2.089,0,0,1-.211,2.684l-2.1,2.126,6.592.87a2.055,2.055,0,0,1,1.159.551,42.327,42.327,0,0,0,29.132,11.572c1.3,0,2.606-.057,3.887-.174a2.089,2.089,0,1,1,.379,4.16c-1.4.129-2.838.193-4.266.193a46.469,46.469,0,0,1-31.5-12.247l-10.1-1.332a2.089,2.089,0,0,1-1.215-3.538l3.837-3.887a46.672,46.672,0,1,1,85.648-25.67" transform="translate(16.739)" fill="#f96a70"/>
    <path id="Path_88" data-name="Path 88" d="M491.881,203.543a2.089,2.089,0,0,1-.186-4.17c1.058-.1,2.121-.234,3.159-.406a2.089,2.089,0,0,1,.689,4.121c-1.137.191-2.308.342-3.474.445A1.758,1.758,0,0,1,491.881,203.543Z" transform="translate(44.205 49.99)" fill="#f96a70"/>
    <path id="Path_89" data-name="Path 89" d="M497.418,203.141a2.09,2.09,0,0,1-.788-4.025,43,43,0,0,0,4.211-1.993,2.091,2.091,0,1,1,1.991,3.678,46.908,46.908,0,0,1-4.624,2.181A2.039,2.039,0,0,1,497.418,203.141Z" transform="translate(51.38 47.311)" fill="#f96a70"/>
    <path id="Path_90" data-name="Path 90" d="M502.834,199.921a2.09,2.09,0,0,1-1.368-3.669c.8-.7,1.582-1.426,2.321-2.174a2.09,2.09,0,0,1,2.971,2.939c-.813.824-1.674,1.63-2.553,2.392A2.09,2.09,0,0,1,502.834,199.921Z" transform="translate(58.401 42.885)" fill="#f96a70"/>
    <path id="Path_91" data-name="Path 91" d="M480.064,201.188a2.087,2.087,0,0,1-1.343-.487,47.053,47.053,0,0,1-4.532-4.365,2.089,2.089,0,1,1,3.09-2.81,43.051,43.051,0,0,0,4.133,3.974,2.087,2.087,0,0,1-1.348,3.687Z" transform="translate(23.276 42.09)" fill="#f96a70"/>
    <path id="Path_92" data-name="Path 92" d="M497.472,212.7a2.088,2.088,0,0,1-2.089-2.089v-.179a24.947,24.947,0,0,1,9.152-18.936,10.9,10.9,0,0,0,3.883-8.8A11.13,11.13,0,0,0,497.9,172.181a11,11,0,0,0-8.027,3.054,10.879,10.879,0,0,0-3.357,7.894,2.089,2.089,0,0,1-4.179,0,15.131,15.131,0,0,1,15.723-15.122,15.133,15.133,0,0,1,9.173,26.687,20.776,20.776,0,0,0-7.671,15.742v.179A2.088,2.088,0,0,1,497.472,212.7Z" transform="translate(34.541 9.885)" fill="#f96a70"/>
    <path id="Path_93" data-name="Path 93" d="M492.409,200.358a6.165,6.165,0,1,1,6.165-6.163A6.172,6.172,0,0,1,492.409,200.358Zm0-8.149a1.985,1.985,0,1,0,1.984,1.986A1.985,1.985,0,0,0,492.409,192.209Z" transform="translate(39.604 35.849)" fill="#f96a70"/>
  </g>
</svg>
