<svg xmlns="http://www.w3.org/2000/svg" width="81.717" height="84.667" viewBox="0 0 81.717 84.667">
  <g id="Group_34" data-name="Group 34" transform="translate(-213.146 -213.333)">
    <path id="Path_109" data-name="Path 109" d="M228.013,261.888a7.4,7.4,0,1,1,7.4-7.4A7.406,7.406,0,0,1,228.013,261.888Zm0-12.134a4.736,4.736,0,1,0,4.736,4.737A4.742,4.742,0,0,0,228.013,249.754Z" transform="translate(0.933 4.215)" fill="#5a5a5a"/>
    <path id="Path_110" data-name="Path 110" d="M241.2,278.485a1.331,1.331,0,0,1-1.331-1.3,13.12,13.12,0,0,0-8.231-11.859,1.332,1.332,0,0,1,1-2.47,15.781,15.781,0,0,1,9.9,14.264,1.331,1.331,0,0,1-1.3,1.363Z" transform="translate(2.206 6.172)" fill="#5a5a5a"/>
    <path id="Path_111" data-name="Path 111" d="M240.832,282.34H214.478a1.331,1.331,0,0,1-1.332-1.331v-3.5a15.729,15.729,0,0,1,9.9-14.649,1.33,1.33,0,1,1,.994,2.468,13.08,13.08,0,0,0-8.234,12.181v2.171h25.024a1.331,1.331,0,1,1,0,2.661Z" transform="translate(0 6.172)" fill="#5a5a5a"/>
    <path id="Path_112" data-name="Path 112" d="M250.29,270.322a7.4,7.4,0,1,1,7.4-7.4A7.407,7.407,0,0,1,250.29,270.322Zm0-12.134a4.736,4.736,0,1,0,4.737,4.736A4.741,4.741,0,0,0,250.29,258.189Z" transform="translate(3.714 5.268)" fill="#5a5a5a"/>
    <path id="Path_113" data-name="Path 113" d="M265.691,290.775H236.755a1.332,1.332,0,0,1-1.331-1.332v-3.5a15.732,15.732,0,0,1,9.9-14.651,1.331,1.331,0,0,1,1,2.469,13.084,13.084,0,0,0-8.235,12.182v2.169H264.36v-2.169a13.085,13.085,0,0,0-8.234-12.182,1.331,1.331,0,0,1,1-2.469,15.732,15.732,0,0,1,9.9,14.651v3.5A1.332,1.332,0,0,1,265.691,290.775Z" transform="translate(2.782 7.225)" fill="#5a5a5a"/>
    <path id="Path_114" data-name="Path 114" d="M272.568,261.888a7.4,7.4,0,1,1,7.4-7.4A7.406,7.406,0,0,1,272.568,261.888Zm0-12.134a4.736,4.736,0,1,0,4.736,4.737A4.743,4.743,0,0,0,272.568,249.754Z" transform="translate(6.496 4.215)" fill="#5a5a5a"/>
    <path id="Path_115" data-name="Path 115" d="M287.682,282.34H261.329a1.331,1.331,0,1,1,0-2.661h25.023v-2.171a13.08,13.08,0,0,0-8.235-12.181,1.331,1.331,0,1,1,1-2.468,15.728,15.728,0,0,1,9.9,14.649v3.5A1.33,1.33,0,0,1,287.682,282.34Z" transform="translate(5.85 6.172)" fill="#5a5a5a"/>
    <path id="Path_116" data-name="Path 116" d="M259.037,278.484a1.33,1.33,0,0,1-1.331-1.331,15.275,15.275,0,0,1,9.9-14.295,1.331,1.331,0,0,1,1,2.468,12.664,12.664,0,0,0-8.231,11.827A1.33,1.33,0,0,1,259.037,278.484Z" transform="translate(5.564 6.172)" fill="#5a5a5a"/>
    <path id="Path_117" data-name="Path 117" d="M254.472,238.516c-10.93,0-20.75-4.677-25.016-11.916a1.329,1.329,0,0,1,0-1.352c4.265-7.238,14.086-11.916,25.016-11.916s20.749,4.677,25.016,11.916a1.329,1.329,0,0,1,0,1.352C275.221,233.839,265.4,238.516,254.472,238.516Zm-22.3-12.592c4.008,6.057,12.649,9.93,22.3,9.93s18.291-3.873,22.3-9.93c-4.009-6.056-12.649-9.929-22.3-9.929S236.18,219.868,232.172,225.925Z" transform="translate(2.014 0)" fill="#5a5a5a"/>
    <path id="Path_118" data-name="Path 118" d="M253.073,238.516a12.592,12.592,0,1,1,12.591-12.592A12.605,12.605,0,0,1,253.073,238.516Zm0-22.521A9.93,9.93,0,1,0,263,225.925,9.94,9.94,0,0,0,253.073,216Z" transform="translate(3.413 0)" fill="#5a5a5a"/>
    <path id="Path_119" data-name="Path 119" d="M252.259,230.372a5.26,5.26,0,1,1,5.261-5.261A5.268,5.268,0,0,1,252.259,230.372Zm0-7.859a2.6,2.6,0,1,0,2.6,2.6A2.6,2.6,0,0,0,252.259,222.512Z" transform="translate(4.227 0.814)" fill="#5a5a5a"/>
    <path id="Path_120" data-name="Path 120" d="M251.823,249.163a1.331,1.331,0,0,1-1.332-1.331V234.686a1.331,1.331,0,0,1,2.663,0v13.146A1.331,1.331,0,0,1,251.823,249.163Z" transform="translate(4.663 2.5)" fill="#5a5a5a"/>
    <path id="Path_121" data-name="Path 121" d="M227.34,244.539a1.33,1.33,0,0,1-.94-2.273l11.886-11.854a1.331,1.331,0,0,1,1.881,1.885l-11.888,11.854A1.327,1.327,0,0,1,227.34,244.539Z" transform="translate(1.606 2.084)" fill="#5a5a5a"/>
    <path id="Path_122" data-name="Path 122" d="M277.6,244.4a1.322,1.322,0,0,1-.939-.388l-11.672-11.638a1.332,1.332,0,0,1,1.881-1.885l11.67,11.638a1.33,1.33,0,0,1-.94,2.273Z" transform="translate(6.425 2.094)" fill="#5a5a5a"/>
    <path id="Path_123" data-name="Path 123" d="M277.458,289.95H227.34a1.332,1.332,0,0,1-1.332-1.332v-9.486a1.331,1.331,0,0,1,2.663,0v8.154h47.456v-8.154a1.332,1.332,0,0,1,2.664,0v9.486A1.333,1.333,0,0,1,277.458,289.95Z" transform="translate(1.606 8.05)" fill="#5a5a5a"/>
  </g>
</svg>
