<svg xmlns="http://www.w3.org/2000/svg" width="111" height="107.234" viewBox="0 0 111 107.234">
  <g id="Group_17" data-name="Group 17" transform="translate(-102.876 -18.367)">
    <path id="Path_65" data-name="Path 65" d="M158.791,53.384a1.768,1.768,0,0,1-1.2-.469L143.916,40.4c-3.5,2.265-9.917,4.282-15.686-.4a1.782,1.782,0,1,1,2.245-2.768c5.948,4.824,12.16-.28,12.423-.5a1.781,1.781,0,0,1,2.348.05l14.747,13.5a1.783,1.783,0,0,1-1.2,3.1Z" transform="translate(22.979 16.707)" fill="#f96a70"/>
    <path id="Path_66" data-name="Path 66" d="M182.017,65.546a8.428,8.428,0,0,1-5.68-2.2,1.781,1.781,0,1,1,2.405-2.627,4.843,4.843,0,0,0,7.122-.639,5.068,5.068,0,0,0-.838-6.738L170.312,39.87a13.938,13.938,0,0,0-9.436-3.666h-.12l-13.238.112a1.892,1.892,0,0,1-1.218-.467l-7.251-6.637L111.991,49.493l6.122,5.6c1.214,1.112,2.39,2.293,3.494,3.512A1.782,1.782,0,1,1,118.968,61c-1.031-1.137-2.129-2.239-3.261-3.276L108,50.671a1.781,1.781,0,0,1,.133-2.739L138.1,25.474a1.779,1.779,0,0,1,2.27.112l7.824,7.162,12.537-.108h.149a17.5,17.5,0,0,1,11.844,4.6l14.713,13.469a8.645,8.645,0,0,1,1.259,11.535,8.445,8.445,0,0,1-5.944,3.268C182.5,65.536,182.26,65.546,182.017,65.546Z" transform="translate(4.229 6.281)" fill="#f96a70"/>
    <path id="Path_67" data-name="Path 67" d="M148.01,76.07a7.424,7.424,0,0,1-5-1.948l-4.587-4.2a1.783,1.783,0,1,1,2.407-2.629l4.587,4.2a3.56,3.56,0,0,0,4.5.4,3.373,3.373,0,0,0,.259-5.182,1.782,1.782,0,1,1,2.4-2.633l3.417,3.127a3.557,3.557,0,0,0,4.5.4,3.376,3.376,0,0,0,.255-5.187l-3.62-3.313a1.783,1.783,0,0,1,2.407-2.629,3.373,3.373,0,0,0,5.143-.71,2.949,2.949,0,0,0,.361-.819,1.782,1.782,0,1,1,3.442.923,6.461,6.461,0,0,1-.8,1.807,6.99,6.99,0,0,1-3.776,2.923,6.912,6.912,0,0,1-9.236,10.062,7,7,0,0,1-2.583,4.056A6.664,6.664,0,0,1,148.01,76.07Z" transform="translate(32.541 32.812)" fill="#f96a70"/>
    <path id="Path_68" data-name="Path 68" d="M148.975,58.395a1.783,1.783,0,0,1-.33-3.535l7.348-1.386-.88-4.662a1.783,1.783,0,1,1,3.5-.662l1.21,6.415a1.785,1.785,0,0,1-1.421,2.083l-9.1,1.716A1.788,1.788,0,0,1,148.975,58.395Z" transform="translate(41.238 26.363)" fill="#f96a70"/>
    <path id="Path_69" data-name="Path 69" d="M119.066,71.253a1.972,1.972,0,0,1-.261-.019,1.779,1.779,0,0,1-1.5-2.021l1.533-10.435L114.423,53a4.207,4.207,0,0,1,2.564-6.685l5.234-.99a1.783,1.783,0,0,1,.662,3.5l-5.236.988a.639.639,0,0,0-.39,1.019l4.867,6.375a1.79,1.79,0,0,1,.348,1.342L120.827,69.73A1.782,1.782,0,0,1,119.066,71.253Z" transform="translate(9.939 25.057)" fill="#f96a70"/>
    <path id="Path_70" data-name="Path 70" d="M125.146,62.566a1.781,1.781,0,0,1-1.759-1.517,19.228,19.228,0,0,1,15.5-21.832,1.782,1.782,0,1,1,.662,3.5,15.679,15.679,0,0,0-12.643,17.8,1.781,1.781,0,0,1-1.5,2.027A1.816,1.816,0,0,1,125.146,62.566Z" transform="translate(18.881 19.373)" fill="#f96a70"/>
    <path id="Path_71" data-name="Path 71" d="M144.5,70.576a1.782,1.782,0,0,1-1.288-3.012l23.051-24.172a1.782,1.782,0,0,1,3.041.9l3.612,19.139a1.778,1.778,0,0,1-1.419,2.081l-26.665,5.033A1.773,1.773,0,0,1,144.5,70.576Zm21.946-22.211L149.609,66.016l19.469-3.676Z" transform="translate(37.071 22.773)" fill="#f96a70"/>
    <path id="Path_72" data-name="Path 72" d="M116.237,85.946a1.783,1.783,0,0,1-1.749-1.45l-6.5-34.429a1.782,1.782,0,0,1,1.421-2.081l49.518-9.344a1.782,1.782,0,0,1,1.62,2.981l-37.31,39.12.915.871a1.782,1.782,0,0,1-.9,3.041l-6.685,1.263A1.775,1.775,0,0,1,116.237,85.946Zm-4.413-34.788,5.838,30.925,1.575-.3a1.786,1.786,0,0,1,.195-2.214l34.717-36.4Z" transform="translate(4.732 18.837)" fill="#f96a70"/>
    <path id="Path_73" data-name="Path 73" d="M158.177,55.512a1.782,1.782,0,0,1-1.29-3.012l3.471-3.639a.642.642,0,0,0-.319-1.068l-7.931-1.869a1.778,1.778,0,0,1-1.3-1.245l-2.243-7.832a.642.642,0,0,0-1.083-.266l-1.55,1.625a1.781,1.781,0,1,1-2.579-2.458l1.55-1.627a4.2,4.2,0,0,1,7.087,1.745l1.958,6.828,6.913,1.629a4.207,4.207,0,0,1,2.079,7l-3.471,3.639A1.771,1.771,0,0,1,158.177,55.512Z" transform="translate(37.204 13.443)" fill="#f96a70"/>
    <path id="Path_74" data-name="Path 74" d="M136.222,78.511a4.318,4.318,0,0,1-.886-.093,4.178,4.178,0,0,1-3.087-2.7l-2.4-6.709-6.817-2.079a4.2,4.2,0,0,1-1.815-6.927l3.676-3.855a1.783,1.783,0,1,1,2.579,2.461L123.8,62.467a.641.641,0,0,0,.276,1.056l7.672,2.34a1.782,1.782,0,0,1,1.156,1.1l2.7,7.552a.642.642,0,0,0,1.07.228l3.676-3.855a1.783,1.783,0,0,1,2.581,2.459l-3.678,3.857A4.18,4.18,0,0,1,136.222,78.511Z" transform="translate(15.983 34.645)" fill="#f96a70"/>
    <path id="Path_75" data-name="Path 75" d="M141.507,56.2a1.774,1.774,0,0,1-1.23-.494l-1.021-.973a1.782,1.782,0,1,1,2.459-2.579l1.021.975a1.782,1.782,0,0,1-1.23,3.071Z" transform="translate(33.339 30.977)" fill="#f96a70"/>
    <path id="Path_76" data-name="Path 76" d="M143.1,61.661a5.129,5.129,0,0,1-3.56-1.4A1.783,1.783,0,0,1,142,57.677a1.845,1.845,0,0,0,2.587-.239,2.077,2.077,0,0,0,.595-1.407,1.548,1.548,0,0,0-1.687-1.608,2.073,2.073,0,0,0-1.378.66,5.279,5.279,0,1,1-7.631-7.278,5.638,5.638,0,0,1,3.751-1.757,5.1,5.1,0,0,1,3.876,1.4,1.782,1.782,0,0,1-2.46,2.579,1.6,1.6,0,0,0-1.209-.421,2.082,2.082,0,0,0-1.38.66,1.724,1.724,0,1,0,2.473,2.357,5.627,5.627,0,0,1,3.751-1.759,5.107,5.107,0,0,1,5.456,5.2,5.7,5.7,0,0,1-5.645,5.593Z" transform="translate(27.948 25.747)" fill="#f96a70"/>
    <path id="Path_77" data-name="Path 77" d="M135.811,50.763a1.781,1.781,0,0,1-1.23-.492l-1.158-1.106a1.783,1.783,0,1,1,2.461-2.579l1.156,1.1a1.783,1.783,0,0,1-1.23,3.073Z" transform="translate(27.911 25.801)" fill="#f96a70"/>
    <path id="Path_78" data-name="Path 78" d="M140.785,118.263a1.781,1.781,0,0,1-1.23-.492L114.2,93.591a1.783,1.783,0,0,1-.062-2.519l42.2-44.252a1.779,1.779,0,0,1,2.492-.083l14.114,12.919a4.843,4.843,0,0,0,7.122-.639,5.068,5.068,0,0,0-.838-6.738l-13.66-12.5a1.784,1.784,0,0,1-.087-2.544l9.94-10.423a1.78,1.78,0,0,1,1.247-.552,1.681,1.681,0,0,1,1.274.49L203.3,50.93a1.781,1.781,0,0,1,.06,2.519l-61.285,64.262A1.778,1.778,0,0,1,140.785,118.263ZM117.949,92.242l22.776,21.719L199.55,52.28,176.776,30.557l-7.458,7.819,12.319,11.276A8.645,8.645,0,0,1,182.9,61.187a8.408,8.408,0,0,1-12.354,1.1l-12.826-11.74Z" transform="translate(10.024 7.339)" fill="#f96a70"/>
    <path id="Path_79" data-name="Path 79" d="M146.31,78.684a19.292,19.292,0,1,1,9.7-35.962,1.745,1.745,0,0,1,.307.226l4.193,3.84a5.12,5.12,0,0,0,.674.488,1.745,1.745,0,0,1,.456.419,19.276,19.276,0,0,1-15.33,30.989Zm-.023-35.035a15.754,15.754,0,1,0,12.7,6.448,7.144,7.144,0,0,1-.882-.681l-4.05-3.7A15.714,15.714,0,0,0,146.287,43.649Z" transform="translate(22.46 20.207)" fill="#f96a70"/>
    <path id="Path_80" data-name="Path 80" d="M147.92,64.386a1.774,1.774,0,0,1-1.2-.467l-4.585-4.2a1.781,1.781,0,0,1,2.405-2.627l4.585,4.2a1.782,1.782,0,0,1-1.2,3.1Z" transform="translate(35.994 35.602)" fill="#f96a70"/>
    <path id="Path_81" data-name="Path 81" d="M111.366,59.114a1.849,1.849,0,0,1-1.245-.512l-6.666-6.1a1.777,1.777,0,0,1-.11-2.515l28.408-31.039a1.79,1.79,0,0,1,1.237-.577,1.741,1.741,0,0,1,1.282.467l12.479,11.421A1.786,1.786,0,0,1,146.612,33c-13.108,9.765-33,24.634-34.062,25.578A1.584,1.584,0,0,1,111.366,59.114Zm-4.189-8.037,4.236,3.877c4.463-3.46,18.664-14.074,31.34-23.522l-9.574-8.763Z" transform="translate(0 0)" fill="#f96a70"/>
  </g>
</svg>
