<svg xmlns="http://www.w3.org/2000/svg" width="77.248" height="116.513" viewBox="0 0 77.248 116.513">
  <g id="Group_5" data-name="Group 5" transform="translate(-265.283 -241.112)">
    <path id="Path_33" data-name="Path 33" d="M296.863,337.063h-18.25a1.781,1.781,0,0,1-1.779-1.782V319.615A6.75,6.75,0,0,0,275.019,315l-5.576-5.988a15.469,15.469,0,0,1-4.16-10.575v-17.4a7.768,7.768,0,0,1,6.886-7.826,7.584,7.584,0,0,1,4.664,1.114V262a6.275,6.275,0,0,1,9.121-5.832,6.25,6.25,0,0,1,12.237.018,6.3,6.3,0,0,1,3.922-.617,1.781,1.781,0,1,1-.573,3.515,2.713,2.713,0,0,0-3.18,2.673,1.78,1.78,0,1,1-3.561,0v-4.037a2.875,2.875,0,0,0-2.2-2.906,2.68,2.68,0,0,0-2.248.589,2.713,2.713,0,0,0-.97,2.076v4.278a1.779,1.779,0,1,1-3.558,0,2.72,2.72,0,0,0-3.223-2.665,2.879,2.879,0,0,0-2.2,2.908v18.742a1.779,1.779,0,1,1-3.558,0,3.948,3.948,0,0,0-1.3-2.944,4.006,4.006,0,0,0-3.059-1.037,4.19,4.19,0,0,0-3.633,4.28v17.4a11.918,11.918,0,0,0,3.208,8.151l5.573,5.988a10.28,10.28,0,0,1,2.767,7.037V333.5h16.471a1.782,1.782,0,0,1,0,3.564Z" transform="translate(0 15.756)" fill="#ec1c24"/>
    <path id="Path_34" data-name="Path 34" d="M278.595,268.323a1.781,1.781,0,0,1-1.782-1.779V256.416a1.78,1.78,0,0,1,3.561,0v10.127A1.777,1.777,0,0,1,278.595,268.323Z" transform="translate(17.987 21.099)" fill="#ec1c24"/>
    <path id="Path_35" data-name="Path 35" d="M275.084,277.47a1.779,1.779,0,0,1-1.779-1.782V256.416a1.779,1.779,0,0,1,3.558,0v19.272A1.781,1.781,0,0,1,275.084,277.47Z" transform="translate(12.514 21.099)" fill="#ec1c24"/>
    <path id="Path_36" data-name="Path 36" d="M271.574,283.045a1.78,1.78,0,0,1-1.779-1.779V263.832a1.779,1.779,0,0,1,3.558,0v17.434A1.78,1.78,0,0,1,271.574,283.045Z" transform="translate(7.039 32.668)" fill="#ec1c24"/>
    <path id="Path_37" data-name="Path 37" d="M320.933,338.939H288.849a1.78,1.78,0,0,1-1.784-1.779V321.492a6.737,6.737,0,0,0-1.812-4.611l-5.573-5.99a15.469,15.469,0,0,1-4.16-10.575v-17.4a7.768,7.768,0,0,1,6.881-7.829,7.586,7.586,0,0,1,4.664,1.116V263.88a6.277,6.277,0,0,1,9.124-5.832,6.25,6.25,0,0,1,12.237.018,6.272,6.272,0,0,1,9.152,5.814v3.512a6.274,6.274,0,0,1,8.986,5.9V300.4a36.764,36.764,0,0,1-1.659,10.926l-.694,2.248a33.175,33.175,0,0,0-1.5,9.869V337.16A1.777,1.777,0,0,1,320.933,338.939Zm-30.305-3.561h28.523V323.446a36.77,36.77,0,0,1,1.656-10.924l.7-2.248A33.262,33.262,0,0,0,323,300.4V273.288a2.875,2.875,0,0,0-2.2-2.9,2.714,2.714,0,0,0-3.223,2.665,1.779,1.779,0,1,1-3.558,0v-9.17a2.881,2.881,0,0,0-2.2-2.908,2.713,2.713,0,0,0-3.22,2.667,1.779,1.779,0,1,1-3.558,0V259.6a2.876,2.876,0,0,0-2.207-2.908,2.713,2.713,0,0,0-3.215,2.665v4.28a1.782,1.782,0,0,1-3.563,0,2.714,2.714,0,0,0-3.22-2.667,2.879,2.879,0,0,0-2.2,2.908v18.742a1.782,1.782,0,0,1-3.564,0,4,4,0,0,0-4.354-3.981,4.19,4.19,0,0,0-3.633,4.28v17.4a11.91,11.91,0,0,0,3.208,8.151l5.576,5.985a10.319,10.319,0,0,1,2.767,7.04Z" transform="translate(15.968 18.686)" fill="#ec1c24"/>
    <path id="Path_38" data-name="Path 38" d="M292.337,275.141a1.779,1.779,0,0,1-1.779-1.779V261.973a1.779,1.779,0,1,1,3.558,0v11.389A1.777,1.777,0,0,1,292.337,275.141Z" transform="translate(39.429 29.763)" fill="#ec1c24"/>
    <path id="Path_39" data-name="Path 39" d="M288.828,280.874a1.779,1.779,0,0,1-1.779-1.779V258.3a1.779,1.779,0,1,1,3.558,0v20.8A1.779,1.779,0,0,1,288.828,280.874Z" transform="translate(33.955 24.03)" fill="#ec1c24"/>
    <path id="Path_40" data-name="Path 40" d="M285.318,280.767a1.779,1.779,0,0,1-1.779-1.779V258.3a1.782,1.782,0,0,1,3.563,0v20.692A1.78,1.78,0,0,1,285.318,280.767Z" transform="translate(28.479 24.03)" fill="#ec1c24"/>
    <path id="Path_41" data-name="Path 41" d="M281.813,284.923a1.784,1.784,0,0,1-1.784-1.782V265.71a1.782,1.782,0,0,1,3.564,0v17.431A1.782,1.782,0,0,1,281.813,284.923Z" transform="translate(23.004 35.598)" fill="#ec1c24"/>
    <path id="Path_42" data-name="Path 42" d="M281.813,263.013a1.783,1.783,0,0,1-1.784-1.779v-18.34a1.782,1.782,0,0,1,3.564,0v18.34A1.782,1.782,0,0,1,281.813,263.013Z" transform="translate(23.004)" fill="#ec1c24"/>
    <path id="Path_43" data-name="Path 43" d="M281.857,259.867a1.786,1.786,0,0,1-1.585-.968L273.5,245.726a1.78,1.78,0,1,1,3.167-1.628l6.774,13.174a1.783,1.783,0,0,1-.771,2.4A1.752,1.752,0,0,1,281.857,259.867Z" transform="translate(12.513 3.145)" fill="#ec1c24"/>
    <path id="Path_44" data-name="Path 44" d="M286.035,259.867a1.748,1.748,0,0,1-.812-.2,1.783,1.783,0,0,1-.771-2.4l6.771-13.174a1.782,1.782,0,0,1,3.169,1.628L287.62,258.9A1.777,1.777,0,0,1,286.035,259.867Z" transform="translate(29.598 3.145)" fill="#ec1c24"/>
  </g>
</svg>
