<svg xmlns="http://www.w3.org/2000/svg" width="19.344" height="14.186" viewBox="0 0 19.344 14.186">
  <path id="Path_146" data-name="Path 146" d="M582.76,199.959a4.538,4.538,0,0,0-.776-2,2.769,2.769,0,0,0-1.929-.86c-2.705-.2-6.763-.2-6.763-.2h-.021s-4.046,0-6.752.2a2.757,2.757,0,0,0-1.939.86,4.541,4.541,0,0,0-.776,2,30.759,30.759,0,0,0-.2,3.25v1.541a30.25,30.25,0,0,0,.2,3.25,4.61,4.61,0,0,0,.776,2.013,3.167,3.167,0,0,0,2.139.86c1.541.158,6.574.21,6.574.21s4.057-.021,6.763-.21a2.72,2.72,0,0,0,1.929-.86A4.607,4.607,0,0,0,582.76,208a32.054,32.054,0,0,0,.189-3.25v-1.541c0-1.614-.189-3.25-.189-3.25Zm-6.249,3.817-5.232,2.82v-5.661l2.37,1.29Z" transform="translate(-563.605 -196.898)" fill="#131313" fill-rule="evenodd"/>
</svg>
